<?xml version="1.0" standalone="no"?>
<!DOCTYPE svg PUBLIC "-//W3C//DTD SVG 20010904//EN"
 "http://www.w3.org/TR/2001/REC-SVG-20010904/DTD/svg10.dtd">
<svg version="1.0" xmlns="http://www.w3.org/2000/svg"
 width="1483.000000pt" height="353.000000pt" viewBox="0 0 1483.000000 353.000000"
 preserveAspectRatio="xMidYMid meet">

<g transform="translate(0.000000,353.000000) scale(0.100000,-0.100000)"
fill="#ffffff" stroke="none">
<path d="M1046 3130 c-124 -216 -226 -396 -226 -401 0 -20 453 -790 461 -782
15 16 449 772 449 783 0 10 -434 767 -450 783 -4 5 -109 -168 -234 -383z"/>
<path d="M1880 2708 c-107 -188 -210 -368 -228 -400 l-33 -58 459 0 460 0 105
183 c58 100 161 280 231 400 l125 217 -462 0 -462 -1 -195 -341z"/>
<path d="M4816 2942 c-6 -11 -906 -2292 -906 -2298 0 -2 96 -4 213 -4 l212 0
64 167 c35 93 77 203 93 246 l30 77 526 0 527 0 89 -234 c49 -129 92 -239 96
-245 4 -8 74 -11 222 -9 l216 3 -453 1150 -454 1150 -235 3 c-129 1 -237 -2
-240 -6z m424 -932 c101 -267 185 -491 188 -497 3 -10 -76 -13 -377 -13 -210
0 -381 3 -381 8 -1 18 376 1000 381 994 3 -4 88 -225 189 -492z"/>
<path d="M14050 2625 c0 -263 -3 -268 -184 -275 l-121 -5 -3 -167 -2 -168 145
0 145 0 0 -449 c0 -491 5 -549 56 -658 35 -73 122 -161 194 -196 101 -49 161
-59 363 -64 l187 -5 0 169 0 170 -124 6 c-171 8 -233 38 -277 132 -17 37 -19
73 -19 468 l0 427 210 0 210 0 0 170 0 170 -210 0 -210 0 0 230 0 230 -180 0
-180 0 0 -185z"/>
<path d="M7295 2380 c-86 -14 -182 -45 -250 -81 -68 -36 -172 -115 -209 -160
l-25 -30 -3 118 -3 118 -187 3 -188 2 0 -1175 0 -1175 188 2 187 3 5 433 5
433 40 -41 c88 -91 213 -165 342 -202 112 -32 314 -32 428 0 337 96 563 367
615 737 23 163 -7 379 -74 528 -126 285 -406 476 -720 491 -50 3 -118 1 -151
-4z m175 -372 c115 -24 253 -125 313 -229 95 -163 101 -379 15 -543 -163 -310
-605 -369 -846 -112 -100 107 -142 217 -142 372 0 356 300 589 660 512z"/>
<path d="M10499 2380 c-373 -47 -659 -289 -759 -642 -27 -95 -37 -289 -21
-393 46 -285 219 -520 476 -646 148 -72 246 -93 430 -93 131 0 162 3 247 27
323 88 554 320 634 635 42 166 31 398 -27 544 -89 227 -251 399 -467 495 -137
61 -359 93 -513 73z m271 -377 c127 -35 257 -138 313 -249 59 -116 78 -271 48
-394 -32 -132 -136 -272 -249 -333 -63 -34 -189 -67 -256 -67 -273 1 -494 196
-528 465 -21 173 37 341 157 454 144 134 323 177 515 124z"/>
<path d="M12705 2380 c-159 -25 -286 -84 -390 -182 l-64 -60 -3 104 -3 103
-187 3 -188 2 0 -855 0 -855 190 0 189 0 3 532 c3 531 3 533 26 591 66 163
216 258 412 260 192 2 335 -88 403 -253 22 -54 22 -62 25 -592 l3 -538 189 0
190 0 0 561 c0 362 -4 586 -11 632 -51 328 -285 534 -627 551 -54 3 -124 1
-157 -4z"/>
<path d="M9372 2350 c-118 -31 -205 -83 -304 -182 l-87 -87 -3 132 -3 132
-187 3 -188 2 0 -855 0 -855 190 0 190 0 0 463 c0 368 3 473 15 516 59 224
236 351 511 368 l104 6 0 189 0 188 -82 -1 c-48 0 -114 -8 -156 -19z"/>
<path d="M12 2261 c2 -4 104 -182 227 -395 l224 -386 459 0 460 0 -19 33 c-10
17 -113 195 -228 395 l-209 362 -459 0 c-252 0 -457 -4 -455 -9z"/>
<path d="M2091 2098 c7 -13 108 -191 226 -395 l215 -373 460 0 460 0 -35 63
c-20 34 -121 211 -226 392 l-190 330 -461 3 -461 2 12 -22z"/>
<path d="M2177 1643 c-225 -383 -448 -779 -444 -792 7 -27 443 -773 452 -773
7 0 455 770 455 783 0 7 -439 771 -450 782 -4 5 -10 5 -13 0z"/>
<path d="M887 1283 c-18 -32 -116 -202 -217 -378 -101 -176 -190 -330 -198
-343 l-14 -22 462 2 462 3 200 345 c109 190 213 369 229 398 l30 52 -460 0
-460 0 -34 -57z"/>
</g>
</svg>