<svg xmlns="http://www.w3.org/2000/svg" viewBox="0 0 256 257" width="32" height="32">
  <defs>
    <linearGradient id="a" x1="-.828%" x2="57.636%" y1="7.652%" y2="78.411%">
      <stop offset="0%" stop-color="#41D1FF"/>
      <stop offset="100%" stop-color="#BD34FE"/>
    </linearGradient>
    <linearGradient id="b" x1="43.376%" x2="50.316%" y1="2.242%" y2="89.03%">
      <stop offset="0%" stop-color="#FFEA83"/>
      <stop offset="8.333%" stop-color="#FFDD35"/>
      <stop offset="100%" stop-color="#FFA800"/>
    </linearGradient>
  </defs>
  <path fill="url(#a)" d="M255.153 37.938L134.895 252.976c-2.483 4.441-8.862 4.466-11.385.047L.875 37.958c-2.746-4.8 1.371-10.646 6.743-9.67l120.385 21.369a6.5 6.5 0 002.268-.002l117.13-21.35c5.361-.978 9.495 4.83 6.766 9.637z"/>
  <path fill="url(#b)" d="M185.432.063l-88.84 16.85a3.25 3.25 0 00-2.62 3.23l-.38 65.7a3.25 3.25 0 003.89 3.2l24.79-5.26a3.25 3.25 0 013.89 3.2l-.76 38.63a3.25 3.25 0 003.89 3.2l15.58-3.63a3.25 3.25 0 013.89 3.2l-.41 22.21a3.25 3.25 0 003.96 3.17l9.45-1.82a3.25 3.25 0 013.89 3.2l-.76 39.04a3.25 3.25 0 005.87 1.87l1.06-1.37L243.8 42.64a3.25 3.25 0 00-3.61-4.7l-25.32 5.03a3.25 3.25 0 01-3.89-3.2l.9-31.2A3.25 3.25 0 00185.43.063z"/>
</svg>






